<?xml version="1.0" encoding="utf-8"?>
<!-- Generator: Adobe Illustrator 19.0.0, SVG Export Plug-In . SVG Version: 6.00 Build 0)  -->
<svg version="1.1" id="Calque_1" xmlns="http://www.w3.org/2000/svg" xmlns:xlink="http://www.w3.org/1999/xlink" x="0px" y="0px" viewBox="43 4.3 100.2 9.7" style="enable-background:new 43 4.3 100.2 9.7;" xml:space="preserve" width="240" height="23">
<style type="text/css">
	.st0{fill:#DA2037;}
</style>
<path class="st0" d="M54,12.4c0,0.9-0.7,1.6-1.6,1.6h-7.9c-0.9,0-1.6-0.7-1.6-1.6V5.9c0-0.9,0.7-1.6,1.6-1.6h7.9
	C53.3,4.3,54,5,54,5.9C54,5.9,54,12.4,54,12.4z M46.7,5.8C46.7,5.8,46.7,5.9,46.7,5.8C46.6,5.9,46.7,5.9,46.7,5.8
	c0,0.1,0.9,0.3,1.2,0.7C48.3,7,48.7,7.9,48,9.1c0,0-1.7,2.3-1.7,2.3c-0.5,0.6-1.1,1-1.7,1c0,0,0,0,0,0c0,0,0,0,0,0h3.3
	c1.3,0,2.2-0.4,2.7-1.1c0,0,1.9-2.2,1.9-2.2c0,0,0,0,0,0l-1.6-2.2c-0.7-0.9-1.3-1.1-1.8-1.1H46.7z"/>
<path d="M104.7,13.9c-0.4,0-0.8-0.2-1.2-0.5l-7.4-6.3v6.8l-2.1,0V5.5c0-0.8,0.3-1.2,1-1.2c0.5,0,0.9,0.2,1.3,0.5l7.3,6.2V4.3h2.1
	v8.4C105.7,13.5,105.4,13.9,104.7,13.9"/>
<path d="M110.8,13.9c-1,0-1.8-0.2-2.6-0.5c-0.9-0.4-1.4-1.1-1.4-2V6.9c0-0.9,0.5-1.6,1.4-2c0.7-0.3,1.6-0.5,2.6-0.5h6.6v1.8h-6.5
	c-1.4,0-2.1,0.2-2.1,0.7v1.4h8.6v1.8H109v1.3c0,0.5,0.6,0.7,1.9,0.7h6.7v1.8L110.8,13.9L110.8,13.9z"/>
<path d="M141.6,13.5c-0.7,0.3-1.7,0.4-3.1,0.4h-2.3c-1.4,0-2.4-0.1-3.1-0.4c-1.1-0.4-1.6-1.2-1.6-2.4V4.3h2.1V11
	c0,0.7,0.8,1.1,2.3,1.1l2.8,0c1.5,0,2.3-0.4,2.3-1.1V4.3h2.1v6.8C143.2,12.2,142.7,13,141.6,13.5"/>
<path d="M65.1,8.2L65.1,8.2l-3.5,0V10h3.5v1.4c0,0.2-0.2,0.4-0.7,0.5c-0.4,0.1-0.7,0.2-1,0.2h-3.7c-1.3,0-2-0.2-2-0.7V6.8
	c0-0.5,0.5-0.7,1.6-0.7h7.6V4.3h-7.2c-1,0-1.9,0.2-2.6,0.5c-1,0.4-1.5,1.1-1.5,2v4.6c0,0.9,0.5,1.6,1.4,2c0.7,0.3,1.6,0.5,2.6,0.5
	h3.8c1,0,1.8-0.2,2.5-0.5c0.9-0.4,1.3-1.1,1.3-2V8.2L65.1,8.2L65.1,8.2z"/>
<path d="M87.8,10.4h-4.5v3.5h-2.1V4.3h7.5c1.1,0,2,0.2,2.7,0.5c1,0.4,1.5,1.1,1.5,2.1v1.1c0,0.9-0.5,1.6-1.4,2
	c-0.4,0.2-0.8,0.3-1.2,0.4l2.6,3.6h-2.5L87.8,10.4z M90.8,6.8c0-0.5-0.6-0.7-1.8-0.7h-5.6v2.5h6c1,0,1.5-0.2,1.5-0.6
	C90.8,7.9,90.8,6.8,90.8,6.8z"/>
<path d="M78.4,4.7c-0.7-0.3-1.7-0.4-3.1-0.4H73c-1.3,0-2.3,0.1-3.1,0.4c-1.1,0.4-1.6,1.2-1.6,2.4v6.8h2.1v-3.5h7.4v3.5H80V7.1
	C80,5.9,79.5,5.1,78.4,4.7 M70.5,8.6V7.2c0-0.7,0.8-1.1,2.3-1.1l2.8,0c1.6,0,2.3,0.4,2.3,1.1v1.3L70.5,8.6L70.5,8.6z"/>
<path d="M128.8,4.7c-0.7-0.3-1.7-0.4-3.1-0.4h-2.3c-1.3,0-2.3,0.1-3.1,0.4c-1.1,0.4-1.6,1.2-1.6,2.4v6.8h2.1v-3.5h7.4v3.5h2.1V7.1
	C130.4,5.9,129.9,5.1,128.8,4.7 M120.9,8.6V7.2c0-0.7,0.8-1.1,2.3-1.1l2.8,0c1.6,0,2.3,0.4,2.3,1.1v1.3L120.9,8.6L120.9,8.6z"/>
</svg>
